<svg width="96" height="96" xmlns="http://www.w3.org/2000/svg" xmlns:xlink="http://www.w3.org/1999/xlink" xml:space="preserve" overflow="hidden"><defs><clipPath id="clip0"><rect x="1184" y="572" width="96" height="96"/></clipPath></defs><g clip-path="url(#clip0)" transform="translate(-1184 -572)"><path d="M1251.51 613C1249.75 613 1248.01 613.272 1246.34 613.807L1244.73 609.947C1243.63 607.324 1243.39 604.423 1244.03 601.653L1245.01 597.409C1245.56 595.033 1244.08 592.661 1241.7 592.113 1241.38 592.038 1241.04 592 1240.71 592L1237.82 592C1237.4 590.804 1236.27 590.003 1235.01 590L1228.01 590C1226.35 590 1225.01 591.343 1225.01 593 1225.01 594.657 1226.35 596 1228.01 596L1235.01 596C1236.27 595.997 1237.4 595.196 1237.82 594L1240.71 594C1242.04 594 1243.13 595.081 1243.13 596.415 1243.13 596.598 1243.11 596.78 1243.06 596.958L1242.08 601.2C1241.64 603.13 1241.56 605.127 1241.87 607.084 1233.69 609.029 1226.03 612.712 1219.41 617.884L1214.4 611.452 1218.85 611.452C1220.59 611.455 1222.01 610.043 1222.01 608.3 1222.01 606.743 1220.88 605.417 1219.34 605.176L1205.89 603.052C1203.58 602.687 1201.42 604.26 1201.06 606.565 1200.69 608.87 1202.26 611.035 1204.57 611.4 1204.79 611.435 1205.01 611.452 1205.23 611.452L1211.87 611.452 1217.85 619.152C1215.64 621.02 1213.57 623.055 1211.66 625.239 1205.96 622.373 1199.01 624.675 1196.14 630.381 1193.27 636.087 1195.58 643.036 1201.28 645.902 1206.99 648.769 1213.94 646.467 1216.8 640.761 1219.32 635.748 1217.88 629.652 1213.38 626.3 1221 617.681 1231.1 611.638 1242.3 609.005 1242.46 609.586 1242.66 610.157 1242.89 610.716L1244.48 614.538C1235.96 618.436 1232.21 628.505 1236.11 637.026 1240.01 645.547 1250.08 649.294 1258.6 645.396 1267.12 641.497 1270.87 631.429 1266.97 622.908 1264.2 616.86 1258.16 612.986 1251.51 613ZM1235.01 594 1228.01 594C1227.45 594 1227.01 593.552 1227.01 593 1227.01 592.448 1227.45 592 1228.01 592L1235.01 592C1235.56 592 1236.01 592.448 1236.01 593 1236.01 593.552 1235.56 594 1235.01 594ZM1216.01 635.5C1216.02 640.763 1211.77 645.042 1206.5 645.058 1201.24 645.074 1196.96 640.82 1196.95 635.558 1196.93 630.295 1201.18 626.016 1206.45 626 1207.82 625.996 1209.17 626.287 1210.42 626.853 1209.22 628.531 1208.12 630.269 1207.1 632.06 1205.19 631.726 1203.37 633.005 1203.04 634.916 1202.7 636.826 1203.98 638.646 1205.89 638.979 1207.8 639.313 1209.62 638.034 1209.96 636.124 1210.16 634.955 1209.76 633.762 1208.89 632.952 1209.85 631.202 1211.32 629.052 1212.15 627.873 1214.57 629.659 1216 632.489 1216.01 635.5ZM1208.01 635.5C1208.01 636.328 1207.33 637 1206.51 637 1205.68 637 1205.01 636.328 1205.01 635.5 1205.01 634.672 1205.68 634 1206.51 634 1207.33 634 1208.01 634.672 1208.01 635.5ZM1203.01 607.226C1203 605.997 1204 605.001 1205.23 605 1205.35 605 1205.46 605.009 1205.58 605.028L1219.03 607.152C1219.66 607.251 1220.09 607.843 1219.99 608.474 1219.9 609.037 1219.42 609.452 1218.85 609.452L1205.23 609.452C1204 609.45 1203.01 608.454 1203.01 607.226ZM1251.51 645C1243.23 645.006 1236.51 638.301 1236.5 630.023 1236.5 624.158 1239.92 618.829 1245.25 616.385L1249.1 625.641C1246.72 626.988 1245.88 630.014 1247.22 632.4 1248.57 634.786 1251.6 635.628 1253.98 634.281 1256.37 632.933 1257.21 629.907 1255.86 627.521 1254.98 625.951 1253.31 624.986 1251.51 625 1251.34 625.008 1251.18 625.024 1251.03 625.049L1247.11 615.659C1255.03 613.23 1263.42 617.682 1265.85 625.603 1268.28 633.523 1263.83 641.912 1255.91 644.341 1254.48 644.778 1253 645 1251.51 645ZM1254.51 630C1254.51 631.657 1253.16 633 1251.51 633 1249.85 633 1248.51 631.657 1248.51 630 1248.51 628.343 1249.85 627 1251.51 627 1253.16 627 1254.51 628.343 1254.51 630Z"/></g></svg>