<svg width="96" height="96" xmlns="http://www.w3.org/2000/svg" xmlns:xlink="http://www.w3.org/1999/xlink" xml:space="preserve" overflow="hidden"><defs><clipPath id="clip0"><rect x="1425" y="475" width="96" height="96"/></clipPath></defs><g clip-path="url(#clip0)" transform="translate(-1425 -475)"><path d="M1492.5 514C1490.82 514.005 1489.15 514.234 1487.53 514.681L1486.65 512.563C1485.63 510.133 1485.4 507.444 1486 504.877L1486.98 500.633C1487.65 497.718 1485.83 494.811 1482.92 494.138 1482.52 494.047 1482.11 494 1481.71 494L1478.22 494C1477.66 493.365 1476.85 493.001 1476 493L1469 493C1467.34 493 1466 494.343 1466 496 1466 497.657 1467.34 499 1469 499L1476 499C1476.85 498.999 1477.66 498.635 1478.22 498L1481.71 498C1482.49 498 1483.12 498.635 1483.12 499.417 1483.12 499.524 1483.11 499.63 1483.09 499.734L1482.11 503.978C1481.75 505.542 1481.62 507.15 1481.72 508.751 1473.93 510.675 1466.62 514.183 1460.24 519.057L1456.27 513.952 1459.84 513.952C1461.31 513.954 1462.5 512.766 1462.5 511.299 1462.51 509.989 1461.55 508.873 1460.26 508.67L1446.81 506.546C1444.77 506.224 1442.87 507.61 1442.54 509.642 1442.22 511.675 1443.61 513.584 1445.64 513.906 1445.83 513.937 1446.03 513.952 1446.23 513.952L1451.21 513.952 1457.15 521.594C1455.56 522.986 1454.05 524.461 1452.62 526.014 1445.69 523.157 1437.77 526.454 1434.91 533.377 1432.05 540.3 1435.35 548.229 1442.27 551.085 1449.19 553.942 1457.12 550.646 1459.98 543.722 1462.1 538.581 1460.87 532.666 1456.87 528.8 1463.92 521.414 1472.9 516.16 1482.79 513.639 1482.84 513.792 1482.9 513.948 1482.96 514.101L1483.8 516.127C1474.5 520.947 1470.87 532.395 1475.69 541.697 1480.51 550.998 1491.96 554.631 1501.26 549.811 1510.56 544.991 1514.19 533.543 1509.37 524.241 1506.11 517.94 1499.6 513.989 1492.5 514ZM1447.5 546C1443.36 546 1440 542.642 1440 538.5 1440 534.358 1443.36 531 1447.5 531 1451.64 531 1455 534.358 1455 538.5 1455 542.64 1451.64 545.996 1447.5 546ZM1492.5 546C1485.32 546.005 1479.5 540.192 1479.5 533.017 1479.5 528.321 1482.03 523.989 1486.12 521.686L1489.46 529.7C1487.64 531.385 1487.53 534.225 1489.22 536.044 1490.9 537.863 1493.74 537.971 1495.56 536.287 1497.38 534.602 1497.49 531.762 1495.8 529.943 1495.15 529.233 1494.28 528.755 1493.33 528.579L1489.86 520.27C1496.89 518.814 1503.77 523.334 1505.23 530.364 1506.68 537.395 1502.16 544.274 1495.13 545.73 1494.27 545.909 1493.38 546 1492.5 546Z"/></g></svg>