<svg width="96" height="96" xmlns="http://www.w3.org/2000/svg" xmlns:xlink="http://www.w3.org/1999/xlink" xml:space="preserve" overflow="hidden"><defs><clipPath id="clip0"><rect x="1302" y="113" width="96" height="96"/></clipPath></defs><g clip-path="url(#clip0)" transform="translate(-1302 -113)"><path d="M1334 175C1334 179.418 1330.42 183 1326 183 1321.58 183 1318 179.418 1318 175 1318 170.582 1321.58 167 1326 167 1330.42 167 1334 170.582 1334 175Z"/><path d="M1382 175C1382 179.418 1378.42 183 1374 183 1369.58 183 1366 179.418 1366 175 1366 170.582 1369.58 167 1374 167 1378.42 167 1382 170.582 1382 175Z"/><path d="M1341 155 1341 143 1354.7 143C1355.8 143 1356.8 143.4 1357.5 144.2L1368.3 155 1341 155ZM1337 155 1311.7 155 1322.5 144.2C1323.3 143.4 1324.3 143 1325.3 143L1337 143 1337 155ZM1384 155 1375.7 155C1374.6 155 1373.6 154.6 1372.9 153.8L1360.3 141.3C1358.8 139.8 1356.8 139 1354.6 139L1325.3 139C1323.2 139 1321.1 139.8 1319.6 141.3L1307.2 153.8C1306.4 154.6 1306 155.6 1306 156.7L1306 167C1306 171.4 1309.6 175 1314 175L1315 175C1315 168.9 1319.9 164 1326 164 1332.1 164 1337 168.9 1337 175L1363 175C1363 168.9 1367.9 164 1374 164 1380.1 164 1385 168.9 1385 175L1390 175C1392.2 175 1394 173.2 1394 171L1394 165C1394 159.5 1389.5 155 1384 155Z"/></g></svg>