<svg width="96" height="96" xmlns="http://www.w3.org/2000/svg" xmlns:xlink="http://www.w3.org/1999/xlink" xml:space="preserve" overflow="hidden"><defs><clipPath id="clip0"><rect x="1293" y="234" width="96" height="96"/></clipPath></defs><g clip-path="url(#clip0)" transform="translate(-1293 -234)"><path d="M1365 287C1360.03 287 1356 291.029 1356 296 1356 300.971 1360.03 305 1365 305 1369.97 305 1374 300.971 1374 296 1373.99 291.031 1369.97 287.005 1365 287ZM1365 303C1361.13 303 1358 299.866 1358 296 1358 292.134 1361.13 289 1365 289 1368.87 289 1372 292.134 1372 296 1372 299.866 1368.87 303 1365 303Z"/><path d="M1327.81 294.017C1327.93 294.671 1328 295.335 1328 296L1328 296.017 1354.01 296.017 1354.01 296C1354.01 295.335 1354.07 294.671 1354.19 294.017Z"/><path d="M1375 278C1379.42 278 1383 281.582 1383 286L1383 292.016C1383 293.121 1382.1 294.016 1381 294.016L1375.81 294.016C1375.94 294.67 1376 295.334 1376 296L1376 296.017 1381 296.017C1383.21 296.01 1384.99 294.223 1385 292.017L1385 286.017C1384.98 280.494 1380.51 276.019 1374.99 276L1366.7 276C1365.64 276.034 1364.61 275.599 1363.9 274.811L1351.3 262.311C1349.79 260.809 1347.73 259.98 1345.6 260.011L1329.04 260.011C1329.02 260.011 1329.01 260.004 1329 260.004 1328.99 260.004 1328.98 260.011 1328.96 260.011L1316.3 260.011C1314.17 259.999 1312.12 260.825 1310.6 262.311L1298.2 274.811C1297.42 275.574 1296.99 276.621 1297 277.711L1297 288.011C1297.01 292.423 1300.59 295.997 1305 296.011L1306 296.011 1306 296C1306 295.335 1306.07 294.671 1306.19 294.017L1305 294.017C1301.69 294.017 1299 291.331 1299 288.017L1299 278ZM1349.89 263.728 1362.26 276 1330 276 1330 262.007 1345.6 262.007C1347.21 261.974 1348.76 262.595 1349.89 263.728ZM1312.02 263.722C1313.16 262.609 1314.7 261.993 1316.3 262.007L1328 262.007 1328 276 1299.86 276C1299.85 276 1299.85 275.992 1299.85 275.983Z"/><path d="M1317 287C1312.03 287 1308 291.029 1308 296 1308 300.971 1312.03 305 1317 305 1321.97 305 1326 300.971 1326 296 1325.99 291.031 1321.97 287.005 1317 287ZM1317 303C1313.13 303 1310 299.866 1310 296 1310 292.134 1313.13 289 1317 289 1320.87 289 1324 292.134 1324 296 1324 299.866 1320.87 303 1317 303Z"/></g></svg>