<svg width="96" height="96" xmlns="http://www.w3.org/2000/svg" xmlns:xlink="http://www.w3.org/1999/xlink" xml:space="preserve" overflow="hidden"><defs><clipPath id="clip0"><rect x="592" y="312" width="96" height="96"/></clipPath></defs><g clip-path="url(#clip0)" transform="translate(-592 -312)"><path d="M682.885 338.5C682.349 336.357 680.178 335.055 678.035 335.59 675.106 336.54 672.244 337.685 669.469 339.018 669.375 336.803 669.262 334.564 669.131 332.302 669.013 330.096 667.129 328.403 664.923 328.521 662.717 328.639 661.024 330.523 661.142 332.729 661.143 332.743 661.144 332.758 661.145 332.773 661.345 336.129 661.493 339.442 661.607 342.682 658.894 343.982 655.968 345.412 652.907 346.938 653.022 342.238 653.218 337.455 653.528 332.803 653.695 330.6 652.046 328.679 649.843 328.511 647.64 328.344 645.719 329.994 645.551 332.197 645.549 332.222 645.547 332.247 645.546 332.272 645.133 338.46 644.918 344.861 644.827 351.028 641.822 352.571 638.761 354.169 635.705 355.789 635.442 348.089 635.047 340.425 634.454 333.908 634.264 331.707 632.325 330.077 630.124 330.267 627.923 330.458 626.293 332.396 626.484 334.597 626.485 334.609 626.486 334.621 626.487 334.633 627.164 342.079 627.577 351.226 627.828 360.033 624.183 362.027 620.628 364.016 617.282 365.948 617.572 346.248 618.244 337.213 618.831 333.105 619.143 330.918 617.623 328.892 615.437 328.579 613.25 328.267 611.223 329.787 610.911 331.974 609.987 338.44 609.421 351.448 609.22 370.74 605.543 372.946 601.981 375.339 598.549 377.909 596.805 379.265 596.491 381.779 597.847 383.522 599.204 385.266 601.717 385.58 603.461 384.224 604.986 383.037 606.917 381.692 609.154 380.233 609.143 382.736 609.138 385.325 609.138 388 609.138 390.209 610.929 392 613.138 392 615.347 392 617.138 390.209 617.138 388 617.138 383.4 617.154 379.174 617.182 375.271 620.54 373.282 624.209 371.191 628.037 369.071 628.177 376.871 628.205 383.749 628.205 388.001 628.205 390.21 629.996 392.001 632.205 392.001 634.414 392.001 636.205 390.21 636.205 388.001 636.205 382.028 636.157 373.669 635.958 364.755 638.89 363.183 641.85 361.622 644.778 360.099 644.827 375.742 645.534 388.045 645.545 388.236 645.67 390.348 647.418 391.998 649.534 392 649.613 392 649.693 392 649.773 391.993 651.978 391.863 653.66 389.971 653.531 387.766 653.519 387.566 652.698 373.26 652.779 355.993 655.943 354.393 658.989 352.875 661.834 351.483 662.172 371.935 661.16 387.534 661.147 387.734 661 389.938 662.668 391.844 664.872 391.991 664.873 391.991 664.873 391.991 664.873 391.991 664.963 391.997 665.053 392 665.142 392 667.246 391.998 668.989 390.366 669.129 388.266 669.144 388.051 670.298 370.282 669.758 347.684 673.07 346.027 676.482 344.579 679.975 343.348 682.117 342.812 683.419 340.642 682.885 338.5Z"/></g></svg>