<svg width="96" height="96" xmlns="http://www.w3.org/2000/svg" xmlns:xlink="http://www.w3.org/1999/xlink" xml:space="preserve" overflow="hidden"><defs><clipPath id="clip0"><rect x="758" y="121" width="96" height="96"/></clipPath></defs><g clip-path="url(#clip0)" transform="translate(-758 -121)"><path d="M802.343 177.881C794.22 183.446 786.732 185.912 783.914 186.006L784.114 192.006C788.748 191.851 797.843 188.589 807.114 181.86 813.722 186.745 821.386 190.008 829.487 191.387L830.542 185.48C823.883 184.357 817.546 181.81 811.962 178.013 821.043 170.266 827.906 160.248 831.85 148.982L826.179 147.026C822.474 157.678 815.894 167.098 807.166 174.241 799.811 167.658 793.781 158.3 788.8 145.886L783.23 148.122C788.327 160.817 794.661 170.7 802.343 177.881Z"/><path d="M834.014 209.828 843.894 200.015 834.082 190.133 834.059 197.025 778.015 197.025 778.015 140.96 784.889 140.937 775.007 131.125 765.194 141.004 771.693 140.982 772.015 140.981 772.015 203.027 834.038 203.027 834.037 203.329 834.014 209.828Z"/></g></svg>