<svg width="96" height="96" xmlns="http://www.w3.org/2000/svg" xmlns:xlink="http://www.w3.org/1999/xlink" xml:space="preserve" overflow="hidden"><defs><clipPath id="clip0"><rect x="592" y="312" width="96" height="96"/></clipPath></defs><g clip-path="url(#clip0)" transform="translate(-592 -312)"><path d="M672.386 342.694 671.561 344.517 678 347.736 678 389.264 661 380.764 661 364 659 364 659 380.764 641 389.764 641 348.236 648.38 344.546 647.554 342.723 640 346.5 620 336.5 600 346.5 600 392.5 620 382.5 640 392.5 660 382.5 680 392.5 680 346.5ZM619 380.764 602 389.264 602 347.736 619 339.236ZM639 389.764 621 380.764 621 339.236 639 348.236Z"/><path d="M659.963 329.513C662.72 329.51 665.297 330.883 666.832 333.173 668.366 335.441 668.698 338.315 667.719 340.873L663.082 351.123 659.963 357.67 656.863 351.164 652.208 340.877C651.229 338.312 651.565 335.431 653.108 333.16 654.643 330.876 657.216 329.508 659.968 329.513M659.968 327.513C656.551 327.509 653.356 329.208 651.449 332.044 649.533 334.872 649.128 338.46 650.365 341.644L655.044 351.986 659.082 360.456C659.338 360.945 659.942 361.134 660.432 360.878 660.612 360.784 660.76 360.637 660.854 360.456L664.893 351.986 669.571 341.644C670.808 338.46 670.404 334.872 668.488 332.044 666.58 329.209 663.385 327.51 659.968 327.513Z"/><path d="M659.963 335.423C661.306 335.423 662.395 336.512 662.395 337.855 662.395 339.198 661.306 340.287 659.963 340.287 658.62 340.287 657.531 339.198 657.531 337.855 657.517 336.526 658.582 335.437 659.911 335.423 659.928 335.423 659.946 335.423 659.963 335.423M659.963 333.423C657.515 333.426 655.533 335.412 655.536 337.86 655.539 340.308 657.525 342.29 659.973 342.287 662.419 342.284 664.4 340.301 664.4 337.855 664.411 335.418 662.443 333.434 660.006 333.423 659.993 333.423 659.981 333.423 659.968 333.423Z"/></g></svg>