<svg width="96" height="96" xmlns="http://www.w3.org/2000/svg" xmlns:xlink="http://www.w3.org/1999/xlink" xml:space="preserve" overflow="hidden"><defs><clipPath id="clip0"><rect x="1420" y="282" width="96" height="96"/></clipPath></defs><g clip-path="url(#clip0)" transform="translate(-1420 -282)"><path d="M1494.8 303.8C1492.4 303.8 1490.4 301.8 1490.4 299.4 1490.4 297 1492.4 295 1494.8 295 1497.2 295 1499.2 297 1499.2 299.4L1499.2 299.4C1499.2 301.8 1497.2 303.8 1494.8 303.8 1494.8 303.8 1494.8 303.8 1494.8 303.8ZM1494.8 289C1491.4 289 1488.2 290.7 1486.3 293.5 1484.4 296.3 1484 299.9 1485.2 303.1L1489.9 313.4 1493.9 321.9C1494.2 322.4 1494.8 322.6 1495.2 322.3 1495.4 322.2 1495.5 322.1 1495.6 321.9L1499.6 313.4 1504.3 303.1C1505.5 299.9 1505.1 296.3 1503.2 293.5 1501.4 290.7 1498.2 289 1494.8 289Z"/><path d="M1443.8 343.8C1440.8 343.8 1438.3 341.3 1438.3 338.3 1438.3 335.3 1440.8 332.8 1443.8 332.8 1446.8 332.8 1449.3 335.3 1449.3 338.3 1449.3 338.3 1449.3 338.3 1449.3 338.3 1449.3 341.3 1446.8 343.8 1443.8 343.8 1443.8 343.8 1443.8 343.8 1443.8 343.8L1443.8 343.8ZM1443.8 325.5C1439.6 325.5 1435.6 327.6 1433.2 331.1 1430.8 334.6 1430.3 339.1 1431.9 343L1437.7 355.8 1442.7 366.3C1443 366.9 1443.8 367.1 1444.4 366.8 1444.6 366.7 1444.8 366.5 1444.9 366.3L1449.9 355.8 1455.7 343C1457.2 339.1 1456.7 334.6 1454.4 331.1 1452 327.6 1448 325.5 1443.8 325.5L1443.8 325.5Z"/><path d="M1457.8 367 1455.2 367C1454 367 1452.9 367 1451.8 367L1451.8 361C1452.8 361 1454 361 1455.2 361L1457.8 361 1457.8 367Z"/><path d="M1461.9 367 1461.9 361C1464.1 361 1466 361 1467.8 360.9L1468 366.9C1466.1 367 1464.1 367 1461.9 367Z"/><path d="M1472 366.7 1471.7 360.7C1473.8 360.6 1475.8 360.5 1477.5 360.3L1478.1 366.3C1476.3 366.5 1474.2 366.6 1472 366.7L1472 366.7Z"/><path d="M1482.3 365.8 1481.4 359.9C1483.3 359.6 1485.1 359.3 1486.9 358.8L1488.5 364.6C1486.4 365.1 1484.4 365.5 1482.3 365.8Z"/><path d="M1492.7 363.1 1490.3 357.6C1491.6 357.2 1492.7 356.3 1493.5 355.2L1498.8 358.1C1497.3 360.4 1495.2 362.1 1492.7 363.1L1492.7 363.1Z"/><path d="M1493.6 353.2C1493.4 351.9 1492.8 350.6 1491.9 349.7L1496.1 345.5C1498 347.4 1499.2 349.8 1499.5 352.5L1493.6 353.2Z"/><path d="M1489.4 347.9C1487.8 347.1 1486.1 346.4 1484.4 345.9L1486.1 340.2C1488.2 340.8 1490.3 341.6 1492.2 342.6L1489.4 347.9Z"/><path d="M1480.6 344.9 1479 344.5C1477.6 344.1 1476.1 343.8 1474.7 343.4L1476.3 337.6C1477.6 338 1479 338.3 1480.4 338.7L1482 339.1 1480.6 344.9Z"/><path d="M1470.6 342C1468.2 341.1 1466 339.6 1464.4 337.6L1469.3 334.2C1470.2 335.3 1471.5 336.1 1472.8 336.5L1470.6 342Z"/><path d="M1468.9 332.2 1462.9 331.8C1463.1 328.9 1464.7 326.3 1467 324.6L1470.7 329.3C1468.9 330.8 1468.9 331.9 1468.9 332.2L1468.9 332.2Z"/><path d="M1473.5 327.8 1471.1 322.3C1473.1 321.4 1475.2 320.7 1477.3 320.2L1478.7 326C1476.9 326.5 1475.2 327.1 1473.5 327.8L1473.5 327.8Z"/><path d="M1482.4 325.3 1481.4 319.4C1484 319 1486.2 318.7 1487.6 318.6L1488.1 324.6C1487.1 324.7 1484.9 324.9 1482.4 325.3L1482.4 325.3Z"/></g></svg>