<svg width="96" height="96" xmlns="http://www.w3.org/2000/svg" xmlns:xlink="http://www.w3.org/1999/xlink" xml:space="preserve" overflow="hidden"><defs><clipPath id="clip0"><rect x="1184" y="366" width="96" height="96"/></clipPath></defs><g clip-path="url(#clip0)" transform="translate(-1184 -366)"><path d="M1267.29 377.436C1264.12 372.731 1257.73 371.489 1253.03 374.662 1251.93 375.4 1250.99 376.342 1250.25 377.436 1248.33 380.265 1247.93 383.855 1249.17 387.039L1253.85 397.381 1257.88 405.851C1258.14 406.34 1258.74 406.534 1259.22 406.283 1259.41 406.188 1259.56 406.036 1259.66 405.851L1263.69 397.381 1268.37 387.039C1269.61 383.855 1269.21 380.265 1267.29 377.436ZM1266.53 386.27 1261.89 396.52 1258.78 403.044C1258.78 403.054 1258.77 403.054 1258.76 403.044L1255.67 396.556 1251.01 386.27C1250.03 383.706 1250.37 380.824 1251.91 378.552 1254.47 374.764 1259.61 373.765 1263.4 376.322 1264.28 376.918 1265.04 377.68 1265.64 378.566 1267.18 380.835 1267.51 383.711 1266.53 386.27Z"/><path d="M1197.22 415.006C1194.84 418.51 1194.34 422.957 1195.87 426.903L1201.67 439.715 1206.67 450.208C1206.98 450.815 1207.73 451.055 1208.33 450.744 1208.56 450.626 1208.75 450.439 1208.87 450.208L1213.87 439.715 1219.67 426.903C1221.2 422.957 1220.7 418.51 1218.33 415.006 1214.39 409.177 1206.48 407.637 1200.65 411.568 1199.3 412.482 1198.13 413.65 1197.22 415.006ZM1216.67 416.135C1218.67 419.08 1219.1 422.814 1217.82 426.133L1212.07 438.854 1207.78 447.845C1207.77 447.855 1207.77 447.855 1207.76 447.845L1203.49 438.89 1197.72 426.133C1196.44 422.808 1196.87 419.069 1198.88 416.122 1202.19 411.209 1208.86 409.913 1213.77 413.228 1214.92 414.001 1215.9 414.988 1216.67 416.135Z"/><path d="M1227.86 448.888C1228.85 448.877 1229.86 448.86 1230.88 448.836L1230.83 446.836C1229.82 446.86 1228.82 446.877 1227.84 446.888Z"/><path d="M1235.82 410.313 1234.92 408.525C1233.97 408.996 1233.06 409.558 1232.21 410.204L1233.44 411.785C1234.18 411.219 1234.98 410.726 1235.82 410.313Z"/><path d="M1231.62 413.701 1229.94 412.63C1229.3 413.612 1228.93 414.739 1228.86 415.905L1230.86 416.025C1230.91 415.197 1231.17 414.396 1231.62 413.701Z"/><path d="M1224.85 446.909 1223.83 446.91 1221.85 446.906 1221.84 448.906 1223.83 448.91 1224.85 448.909 1224.85 446.909Z"/><path d="M1243.65 424.409C1242.67 424.163 1241.7 423.918 1240.76 423.662L1240.23 425.593C1241.19 425.851 1242.17 426.1 1243.16 426.349Z"/><path d="M1215.85 446.88 1215.85 448.88C1216.76 448.88 1217.77 448.885 1218.84 448.891L1218.85 446.891C1217.77 446.885 1216.77 446.88 1215.85 446.88Z"/><path d="M1231.63 421.926 1232.88 420.367C1232.21 419.854 1231.67 419.193 1231.29 418.434L1229.48 419.286C1229.99 420.318 1230.72 421.221 1231.63 421.926Z"/><path d="M1243.73 405.674 1244.13 407.632C1245.06 407.439 1246.04 407.261 1247.04 407.103L1246.73 405.127C1245.7 405.29 1244.69 405.474 1243.73 405.674Z"/><path d="M1249.76 404.717 1249.98 406.705C1251.71 406.508 1252.85 406.445 1252.9 406.443L1252.79 404.445C1252.67 404.452 1251.52 404.517 1249.76 404.717Z"/><path d="M1261.69 438.092C1261.7 437.218 1261.6 436.348 1261.41 435.496L1259.46 435.952C1259.62 436.653 1259.7 437.37 1259.69 438.089 1259.69 438.251 1259.69 438.412 1259.67 438.573L1261.65 438.794C1261.68 438.561 1261.69 438.326 1261.69 438.092Z"/><path d="M1251.44 444.588 1251.97 446.518C1252.97 446.251 1253.95 445.932 1254.92 445.561L1254.2 443.696C1253.3 444.042 1252.38 444.339 1251.44 444.588Z"/><path d="M1256.73 442.469 1257.78 444.172C1258.74 443.603 1259.59 442.872 1260.3 442.011L1258.74 440.766C1258.17 441.445 1257.49 442.021 1256.73 442.469Z"/><path d="M1252.42 426.962 1251.7 428.829C1252.6 429.168 1253.47 429.563 1254.32 430.012L1255.26 428.249C1254.34 427.761 1253.39 427.331 1252.42 426.962Z"/><path d="M1257.93 430.014 1256.65 431.551C1257.34 432.119 1257.94 432.789 1258.44 433.537L1260.12 432.452C1259.51 431.534 1258.78 430.712 1257.93 430.014Z"/><path d="M1245.68 445.745 1245.97 447.724C1247.02 447.569 1248.03 447.397 1248.97 447.211L1248.59 445.248C1247.68 445.428 1246.7 445.595 1245.68 445.745Z"/><path d="M1234.39 423.595C1235.34 424.028 1236.31 424.405 1237.3 424.725L1237.93 422.826C1237.01 422.53 1236.11 422.182 1235.24 421.782Z"/><path d="M1236.91 448.597 1236.8 446.6C1235.81 446.657 1234.81 446.704 1233.82 446.743L1233.9 448.741C1234.9 448.703 1235.91 448.655 1236.91 448.597Z"/><path d="M1237.8 407.305 1238.48 409.187C1239.34 408.877 1240.27 408.583 1241.27 408.314L1240.74 406.384C1239.7 406.667 1238.71 406.977 1237.8 407.305Z"/><path d="M1239.93 448.391C1240.95 448.309 1241.96 448.215 1242.95 448.107L1242.73 446.118C1241.76 446.225 1240.77 446.317 1239.77 446.397Z"/><path d="M1246.57 425.152 1246.07 427.087C1247.03 427.339 1247.99 427.602 1248.92 427.887L1249.5 425.973C1248.54 425.681 1247.56 425.411 1246.57 425.152Z"/><path d="M1258.77 378.815C1256.32 378.815 1254.34 380.8 1254.34 383.247 1254.34 385.695 1256.32 387.679 1258.77 387.679 1261.22 387.679 1263.2 385.695 1263.2 383.247 1263.21 380.81 1261.24 378.826 1258.81 378.815 1258.79 378.815 1258.78 378.815 1258.77 378.815ZM1258.77 385.679C1257.43 385.679 1256.34 384.59 1256.34 383.247 1256.34 381.904 1257.43 380.815 1258.77 380.815 1260.11 380.815 1261.2 381.904 1261.2 383.247 1261.22 384.576 1260.15 385.665 1258.82 385.679 1258.8 385.68 1258.79 385.68 1258.77 385.679Z"/><path d="M1202.28 422.205C1202.28 425.237 1204.74 427.696 1207.77 427.696 1210.8 427.696 1213.26 425.238 1213.26 422.205 1213.26 419.172 1210.8 416.714 1207.77 416.714 1207.77 416.714 1207.77 416.714 1207.77 416.714 1204.75 416.702 1202.29 419.139 1202.28 422.159 1202.28 422.174 1202.28 422.19 1202.28 422.205ZM1211.26 422.205C1211.26 424.133 1209.7 425.696 1207.77 425.696 1205.84 425.696 1204.28 424.133 1204.28 422.205 1204.28 420.277 1205.84 418.714 1207.77 418.714 1207.77 418.714 1207.77 418.714 1207.77 418.714 1209.68 418.693 1211.24 420.223 1211.26 422.13 1211.26 422.155 1211.26 422.18 1211.26 422.205Z"/></g></svg>