<svg width="96" height="96" xmlns="http://www.w3.org/2000/svg" xmlns:xlink="http://www.w3.org/1999/xlink" xml:space="preserve" overflow="hidden"><defs><clipPath id="clip0"><rect x="1421" y="388" width="96" height="96"/></clipPath></defs><g clip-path="url(#clip0)" transform="translate(-1421 -388)"><path d="M1487 436C1487 437.1 1486.1 438 1485 438L1453 438C1451.9 438 1451 437.1 1451 436L1451 416C1451 413.8 1452.8 412 1455 412L1463 412C1463 410.9 1463.9 410 1465 410L1473 410C1474.1 410 1475 410.9 1475 412L1483 412C1485.2 412 1487 413.8 1487 416L1487 436ZM1484 460C1482.3 460 1481 458.7 1481 457 1481 455.3 1482.3 454 1484 454 1485.7 454 1487 455.3 1487 457 1487 458.7 1485.7 460 1484 460ZM1454 460C1452.3 460 1451 458.7 1451 457 1451 455.3 1452.3 454 1454 454 1455.7 454 1457 455.3 1457 457 1457 458.7 1455.7 460 1454 460ZM1485 406 1471 406 1471 400 1481 400 1481 396 1457 396 1457 400 1467 400 1467 406 1453 406C1448.6 406 1445 409.6 1445 414L1445 460C1445 463.3 1447.7 466 1451 466L1451.9 466 1447.4 476 1451.8 476 1456.3 466 1481.7 466 1486.2 476 1490.6 476 1486.1 466 1487 466C1490.3 466 1493 463.3 1493 460L1493 414C1493 409.6 1489.4 406 1485 406Z"/></g></svg>