<svg width="96" height="96" xmlns="http://www.w3.org/2000/svg" xmlns:xlink="http://www.w3.org/1999/xlink" xml:space="preserve" overflow="hidden"><defs><clipPath id="clip0"><rect x="1186" y="479" width="96" height="96"/></clipPath></defs><g clip-path="url(#clip0)" transform="translate(-1186 -479)"><path d="M1250 496.909 1235 496.909 1235 490 1245 490 1245 488 1223 488 1223 490 1233 490 1233 496.909 1218 496.909C1213.59 496.923 1210.01 500.496 1210 504.909L1210 550.909C1210.01 554.218 1212.69 556.899 1216 556.909L1252 556.909C1255.31 556.899 1257.99 554.218 1258 550.909L1258 504.909C1257.99 500.496 1254.41 496.923 1250 496.909ZM1218 498.909 1250 498.909C1253.31 498.913 1256 501.597 1256 504.909L1239.83 504.909C1239.4 503.711 1238.27 502.911 1237 502.909L1231 502.909C1229.73 502.911 1228.6 503.711 1228.17 504.909L1212 504.909C1212 501.597 1214.69 498.913 1218 498.909ZM1230 506.909 1230 505.909C1230 505.357 1230.45 504.909 1231 504.909L1237 504.909C1237.55 504.909 1238 505.357 1238 505.909L1238 506.909 1256 506.909 1256 529.909 1212 529.909 1212 506.909ZM1252 554.909 1216 554.909C1213.79 554.906 1212 553.117 1212 550.909L1212 531.909 1256 531.909 1256 550.909C1256 553.117 1254.21 554.906 1252 554.909Z"/><path d="M1219 543.909C1216.79 543.909 1215 545.7 1215 547.909 1215 550.118 1216.79 551.909 1219 551.909 1221.21 551.909 1223 550.118 1223 547.909 1223.02 545.723 1221.27 543.932 1219.08 543.909 1219.06 543.909 1219.03 543.909 1219 543.909ZM1219 549.909C1217.9 549.909 1217 549.014 1217 547.909 1217 546.804 1217.9 545.909 1219 545.909 1220.1 545.909 1221 546.804 1221 547.909 1221.03 548.99 1220.17 549.886 1219.09 549.911 1219.06 549.912 1219.03 549.912 1219 549.911Z"/><path d="M1249 543.909C1246.79 543.909 1245 545.7 1245 547.909 1245 550.118 1246.79 551.909 1249 551.909 1251.21 551.909 1253 550.118 1253 547.909 1253.02 545.723 1251.27 543.932 1249.08 543.909 1249.06 543.909 1249.03 543.909 1249 543.909ZM1249 549.909C1247.9 549.909 1247 549.014 1247 547.909 1247 546.804 1247.9 545.909 1249 545.909 1250.1 545.909 1251 546.804 1251 547.909 1251.03 548.99 1250.17 549.886 1249.09 549.911 1249.06 549.912 1249.03 549.912 1249 549.911Z"/><path d="M1213.44 568 1215.64 568 1219.74 558.909 1217.55 558.909 1213.44 568Z"/><path d="M1248.26 558.909 1252.36 568 1254.56 568 1250.45 558.909 1248.26 558.909Z"/></g></svg>