<svg width="96" height="96" xmlns="http://www.w3.org/2000/svg" xmlns:xlink="http://www.w3.org/1999/xlink" xml:space="preserve" overflow="hidden"><defs><clipPath id="clip0"><rect x="475" y="151" width="96" height="96"/></clipPath></defs><g clip-path="url(#clip0)" transform="translate(-475 -151)"><path d="M505.042 188.968 508.712 188.968 499.88 168 491.025 188.968 494.696 188.968 488.731 201.425 497.586 201.425 497.586 207 502.174 207 502.174 201.425 511.006 201.425 505.042 188.968 505.042 188.968Z"/><path d="M560.795 173.784 563.383 173.784 557.155 159 550.912 173.784 553.5 173.784 549.294 182.568 555.538 182.568 555.538 186.498 558.773 186.498 558.773 182.568 565 182.568 560.795 173.784 560.795 173.784Z"/><path d="M529.855 180.619C534.048 183.457 545.263 188.896 547.162 190.248 549.818 192.138 558.446 196.393 551.808 207.905 545.17 219.417 539.022 227.9 534.952 234L480.006 234C493.668 222.785 514.7 213.531 523.791 206.973 532.882 200.415 533.375 195.461 529.006 190 525.006 185 521.418 183.591 519.948 180.58 517.331 175.222 526.782 172.954 530.006 173 530.397 173 534.006 173 534.006 173 534.006 173 525.661 177.782 529.855 180.619Z"/></g></svg>