<svg width="96" height="96" xmlns="http://www.w3.org/2000/svg" xmlns:xlink="http://www.w3.org/1999/xlink" xml:space="preserve" overflow="hidden"><defs><clipPath id="clip0"><rect x="260" y="195" width="96" height="96"/></clipPath></defs><g clip-path="url(#clip0)" transform="translate(-260 -195)"><path d="M308 239C303 239 299 235 299 230 299 225 303 221 308 221 313 221 317 225 317 230 317 235 313 239 308 239ZM308 209C301.1 209 294.6 212.4 290.7 218.2 286.8 223.9 286 231.2 288.5 237.7L298 258.7 306.2 275.9C306.5 276.6 307.2 277 308 277 308.8 277 309.5 276.6 309.8 275.9L318 258.7 327.5 237.7C330 231.2 329.2 223.9 325.3 218.2 321.4 212.4 314.9 209 308 209Z" stroke="#000000" fill="#C00000"/></g></svg>